<svg width="1441" height="734" viewBox="0 0 1441 734" fill="none" xmlns="http://www.w3.org/2000/svg">
<rect width="1441" height="734" fill="#E5E5E5"/>
<path id="Item5" d="M1353.9 42.75C1353.9 55.93 1343.21 66.62 1330.03 66.62C1316.85 66.62 1306.16 55.93 1306.16 42.75C1306.16 29.57 1316.85 18.88 1330.03 18.88C1343.22 18.88 1353.9 29.57 1353.9 42.75Z" fill="url(#paint0_linear)"/>
<path id="Item7" d="M734.74 709.87C734.74 723.05 724.05 733.74 710.87 733.74C697.69 733.74 687 723.05 687 709.87C687 696.69 697.69 686 710.87 686C724.06 686 734.74 696.69 734.74 709.87Z" fill="url(#paint1_linear)"/>
<path id="Item4" d="M1067.89 205.75C1087.34 205.75 1103.1 189.986 1103.1 170.54C1103.1 151.094 1087.34 135.33 1067.89 135.33C1048.44 135.33 1032.68 151.094 1032.68 170.54C1032.68 189.986 1048.44 205.75 1067.89 205.75Z" fill="url(#paint2_linear)"/>
<path id="Item2" d="M120.25 455.72C120.25 488.89 93.36 515.78 60.19 515.78C27.02 515.78 0.130005 488.89 0.130005 455.72C0.130005 422.55 27.02 395.66 60.19 395.66C93.36 395.66 120.25 422.55 120.25 455.72Z" fill="url(#paint3_linear)"/>
<path id="Item3" d="M1440.27 460.54C1440.27 484.39 1420.94 503.72 1397.08 503.72C1373.23 503.72 1353.9 484.39 1353.9 460.54C1353.9 436.69 1373.24 417.35 1397.08 417.35C1420.94 417.35 1440.27 436.69 1440.27 460.54Z" fill="url(#paint4_linear)"/>
<path id="Item6" d="M624.37 43.19C624.37 67.04 605.04 86.37 581.18 86.37C557.33 86.37 538 67.04 538 43.19C538 19.34 557.34 0 581.18 0C605.04 0 624.37 19.34 624.37 43.19Z" fill="url(#paint5_linear)"/>
<path id="Item1" d="M484.37 425.71C486.85 425.16 489.35 424.71 491.85 424.37L448.17 446.29L447.95 446.4L438.43 451.18C440.2 449.38 442.04 447.65 443.97 445.98L446.76 444.58L446.98 444.47L484.37 425.71ZM388.21 162.53C384.14 162.53 380.06 162.68 376 163C354.4 164.68 340.36 170.37 332 181C301.49 219.82 355.23 313.2 400 391C409.57 407.63 425.11 434.63 440.01 456.03L449.98 451.02L450.2 450.91L504.74 423.54C506.26 423.55 507.77 423.6 509.28 423.68L451.39 452.73L451.17 452.84L441.26 457.82C442.25 459.23 443.25 460.62 444.23 461.97L453.43 457.35L453.65 457.24L517.78 425.06L518 424.95L518.56 424.67C519.75 424.86 520.94 425.07 522.12 425.3L518.75 426.99L518.53 427.1L454.4 459.28L454.18 459.39L445.53 463.73C446.36 464.85 447.18 465.94 448 467C448.21 467.27 448.42 467.55 448.63 467.81L456.67 463.77L456.89 463.66L520.79 431.59L521.01 431.48L529.7 427.12C530.7 427.41 531.7 427.71 532.69 428.03L522.2 433.29L521.98 433.4L457.63 465.7L457.41 465.81L449.98 469.54C451.04 470.89 452.12 472.22 453.22 473.55L459.67 470.31L459.89 470.2L524.24 437.9L524.46 437.79L539.19 430.4C540.07 430.76 540.93 431.13 541.79 431.51L525.2 439.84L524.98 439.95L461.08 472.02L460.86 472.13L454.64 475.25C455.75 476.57 456.87 477.88 458.02 479.19L463.12 476.63L463.34 476.52L527.47 444.34L527.69 444.23L547.5 434.29C548.27 434.7 549.04 435.12 549.8 435.55L528.43 446.27L528.21 446.38L464.08 478.56L463.86 478.67L459.5 480.86C460.66 482.16 461.83 483.44 463.02 484.73L466.34 483.06L466.56 482.95L530.69 450.77L530.91 450.66L554.87 438.64C555.56 439.09 556.24 439.55 556.92 440.03L531.87 452.6L531.65 452.71L467.3 485.01L467.08 485.12L464.55 486.39C465.75 487.66 466.97 488.93 468.21 490.19L469.34 489.62L469.56 489.51L533.69 457.33L533.91 457.22L561.46 443.39C562.08 443.88 562.69 444.38 563.3 444.88L535.1 459.03L534.88 459.14L470.75 491.32L470.53 491.43L469.8 491.8C471.04 493.05 472.31 494.3 473.59 495.54L537.15 463.64L537.37 463.53L567.38 448.47C567.94 448.99 568.49 449.52 569.03 450.06L538.12 465.57L537.9 465.68L475.25 497.12C476.54 498.35 477.84 499.57 479.16 500.79L540.38 470.07L540.6 469.96L572.68 453.86C573.18 454.41 573.67 454.97 574.16 455.54L541.35 472.01L541.13 472.12L480.87 502.36C482.2 503.57 483.55 504.78 484.91 505.97L543.62 476.51L543.84 476.4L577.42 459.55C577.86 460.13 578.3 460.72 578.73 461.31L544.8 478.34L544.58 478.45L486.66 507.52C488.03 508.71 489.42 509.89 490.82 511.07L546.62 483.07L546.84 482.96L581.61 465.51C582 466.12 582.39 466.73 582.77 467.34L548.03 484.78L547.81 484.89L492.63 512.58C494.05 513.75 495.47 514.91 496.91 516.07L550.07 489.39L550.29 489.28L585.3 471.71C585.64 472.34 585.98 472.98 586.31 473.62L551.04 491.32L550.82 491.43L498.77 517.55C500.23 518.71 501.68 519.84 503.17 520.98L553.3 495.82L553.52 495.71L588.49 478.16C588.79 478.82 589.07 479.48 589.35 480.15L554.26 497.76L554.04 497.87L505.07 522.45C506.57 523.59 508.06 524.7 509.58 525.82L556.3 502.37L556.52 502.26L591.18 484.87C591.43 485.56 591.66 486.24 591.89 486.93L557.72 504.08L557.5 504.19L511.55 527.25C513.08 528.36 514.62 529.47 516.18 530.57L559.77 508.7L559.99 508.59L593.37 491.84C593.56 492.55 593.75 493.26 593.92 493.98L560.73 510.64L560.51 510.75L518.19 531.99C519.75 533.08 521.34 534.17 522.93 535.25L563 515.14L563.22 515.03L595.02 499.07C595.16 499.81 595.28 500.55 595.4 501.29L563.97 517.07L563.75 517.18L524.99 536.63C526.6 537.71 528.21 538.77 529.84 539.83L566.23 521.57L566.45 521.46L596.09 506.59C596.17 507.36 596.23 508.13 596.29 508.91L567.2 523.51L566.98 523.62L531.95 541.2C533.59 542.26 535.25 543.31 536.91 544.35L569.24 528.13L569.46 528.02L596.54 514.43C596.55 515.24 596.55 516.04 596.54 516.85L570.65 529.84L570.43 529.95L539.06 545.69C540.75 546.73 542.43 547.76 544.14 548.78L572.69 534.45L572.91 534.34L596.28 522.61C596.22 523.45 596.14 524.3 596.06 525.14L573.88 536.27L573.66 536.38L546.34 550.09C548.06 551.11 549.79 552.12 551.53 553.12L575.92 540.88L576.14 540.77L595.23 531.19C595.08 532.08 594.91 532.97 594.74 533.85L576.88 542.81L576.66 542.92L553.77 554.41C555.53 555.41 557.29 556.4 559.07 557.39L578.92 547.43L579.14 547.32L593.21 540.26C592.95 541.21 592.67 542.15 592.38 543.09L580.33 549.14L580.11 549.25L561.36 558.66C563.16 559.65 564.95 560.61 566.77 561.58L582.37 553.75L582.59 553.64L589.96 549.94C589.55 550.97 589.12 551.99 588.68 553L583.34 555.68L583.12 555.79L569.12 562.81C570.95 563.77 572.8 564.73 574.65 565.68L584.97 560.5C584.33 561.65 583.67 562.79 582.99 563.91L577.05 566.89C625.01 591.1 679.08 609.44 732.98 619.65C731.74 614.62 731.08 609.36 731.08 603.94C731.08 567.87 760.32 538.62 796.4 538.62C832.47 538.62 861.71 567.86 861.71 603.94C861.71 612.25 860.16 620.2 857.33 627.51C917.54 622.59 970.19 603.1 1004.01 564.98C1072.75 487.51 1057.34 335.66 1012.01 316.98C1009.06 315.77 1006.22 315.21 1003.42 315.21C975.74 315.21 953.35 370.15 892.01 386.98C880.42 390.16 868.73 391.63 856.91 391.63C783.22 391.63 705.34 334.35 626.24 277.07C547.13 219.81 466.81 162.52 388.21 162.53Z" fill="url(#paint6_linear)" fill-opacity="0.7"/>
<defs>
<linearGradient id="paint0_linear" x1="1345.4" y1="50.641" x2="1312.88" y2="33.9413" gradientUnits="userSpaceOnUse">
<stop stopColor="#D500F9"/>
<stop offset="0.8703" stopColor="#2196F3"/>
<stop offset="1" stopColor="#2196F3"/>
</linearGradient>
<linearGradient id="paint1_linear" x1="726.236" y1="717.761" x2="693.722" y2="701.061" gradientUnits="userSpaceOnUse">
<stop stopColor="#D500F9"/>
<stop offset="0.8703" stopColor="#2196F3"/>
<stop offset="1" stopColor="#2196F3"/>
</linearGradient>
<linearGradient id="paint2_linear" x1="1086.74" y1="131.115" x2="1051.22" y2="205.391" gradientUnits="userSpaceOnUse">
<stop stopColor="#2196F3"/>
<stop offset="0.1297" stopColor="#2196F3"/>
<stop offset="1" stopColor="#D500F9"/>
</linearGradient>
<linearGradient id="paint3_linear" x1="99.1665" y1="475.746" x2="17.3413" y2="433.719" gradientUnits="userSpaceOnUse">
<stop stopColor="#D500F9"/>
<stop offset="0.8703" stopColor="#2196F3"/>
<stop offset="1" stopColor="#2196F3"/>
</linearGradient>
<linearGradient id="paint4_linear" x1="1425.02" y1="474.888" x2="1366.19" y2="444.671" gradientUnits="userSpaceOnUse">
<stop stopColor="#D500F9"/>
<stop offset="0.8703" stopColor="#2196F3"/>
<stop offset="1" stopColor="#2196F3"/>
</linearGradient>
<linearGradient id="paint5_linear" x1="609.119" y1="57.5384" x2="550.289" y2="27.3215" gradientUnits="userSpaceOnUse">
<stop stopColor="#D500F9"/>
<stop offset="0.8703" stopColor="#2196F3"/>
<stop offset="1" stopColor="#2196F3"/>
</linearGradient>
<linearGradient id="paint6_linear" x1="304.871" y1="373.723" x2="1286.87" y2="439.723" gradientUnits="userSpaceOnUse">
<stop offset="0.0208333" stopColor="#D500F9"/>
<stop offset="0.671875" stopColor="#2196F3"/>
<stop offset="0.947917" stopColor="#215CF3"/>
</linearGradient>
</defs>
</svg>
